<svg id="_1" data-name="1" xmlns="http://www.w3.org/2000/svg" viewBox="0 0 55.78 55.78"><defs><style>.cls-1{fill:#fff;}</style></defs><rect class="cls-1" width="55.78" height="55.78"/><path d="M320.36,164.15h-.07a8.41,8.41,0,0,0-3.24,0,.36.36,0,0,1-.34-.12l-.1-.13a.32.32,0,0,1-.07-.28l.36-2.09a.34.34,0,1,1,.67.11l-.3,1.77a9.39,9.39,0,0,1,2.8,0l-.85-4.91h-1.13l-.29,1.11a.33.33,0,0,1-.41.25.34.34,0,0,1-.25-.42l.35-1.37a.35.35,0,0,1,.34-.26h1.68a.34.34,0,0,1,.34.29l.95,5.52a.35.35,0,0,1-.07.28l-.11.13A.32.32,0,0,1,320.36,164.15Z" transform="translate(-291.46 -143.82)"/><path d="M323.93,165.79a.38.38,0,0,1-.21-.07,8.35,8.35,0,0,0-3.3-1.55.32.32,0,0,1-.27-.27l0-.16a.36.36,0,0,1,.08-.28l4.12-5.1a.35.35,0,0,1,.44-.08l1.47.82a.35.35,0,0,1,.15.42l-2.13,6a.36.36,0,0,1-.23.22Zm-3-2.19a9.11,9.11,0,0,1,2.79,1.3l1.88-5.34-1-.54Z" transform="translate(-291.46 -143.82)"/><path d="M313.41,165.79h-.1a.41.41,0,0,1-.23-.22l-2.13-6a.35.35,0,0,1,.16-.42l1.47-.82a.34.34,0,0,1,.43.08l4.13,5.11a.32.32,0,0,1,.07.27l0,.16a.31.31,0,0,1-.26.27,8.35,8.35,0,0,0-3.3,1.55A.4.4,0,0,1,313.41,165.79Zm-1.71-6.23,1.88,5.34a9,9,0,0,1,2.79-1.3L312.66,159Z" transform="translate(-291.46 -143.82)"/><path d="M318.67,187.33a8.94,8.94,0,0,1-8.92-8.93v-6.18a8.92,8.92,0,1,1,17.84,0v6.18A8.94,8.94,0,0,1,318.67,187.33Zm0-23.34a8.25,8.25,0,0,0-8.24,8.23v6.18a8.24,8.24,0,1,0,16.47,0v-6.18A8.24,8.24,0,0,0,318.67,164Z" transform="translate(-291.46 -143.82)"/><path d="M313.94,182.52a.41.41,0,0,1-.18-.05.35.35,0,0,1-.12-.47l8.78-14.42a.34.34,0,0,1,.58.36l-8.77,14.42A.35.35,0,0,1,313.94,182.52Z" transform="translate(-291.46 -143.82)"/><path d="M316.21,184.79a.35.35,0,0,1-.3-.52l8.78-14.42a.34.34,0,0,1,.58.36l-8.77,14.41A.35.35,0,0,1,316.21,184.79Z" transform="translate(-291.46 -143.82)"/><path d="M323.13,182.52a.34.34,0,0,1-.29-.16l-8.78-14.42a.35.35,0,0,1,.59-.36L323.42,182a.34.34,0,0,1-.11.47A.41.41,0,0,1,323.13,182.52Z" transform="translate(-291.46 -143.82)"/><path d="M321.07,184.37a.34.34,0,0,1-.29-.16L312,169.79a.35.35,0,0,1,.59-.36l8.77,14.42a.34.34,0,0,1-.11.47A.41.41,0,0,1,321.07,184.37Z" transform="translate(-291.46 -143.82)"/><path d="M319,185.27a.3.3,0,0,1-.18-.06.34.34,0,0,1-.11-.47l6.18-9.61a.34.34,0,0,1,.47-.11.36.36,0,0,1,.11.48l-6.18,9.61A.36.36,0,0,1,319,185.27Z" transform="translate(-291.46 -143.82)"/><path d="M312.83,178.4a.41.41,0,0,1-.18-.05.34.34,0,0,1-.1-.48l6.17-9.61a.35.35,0,0,1,.58.38l-6.18,9.6A.32.32,0,0,1,312.83,178.4Z" transform="translate(-291.46 -143.82)"/><path d="M324.5,179.77a.33.33,0,0,1-.29-.16l-7.55-12.35a.35.35,0,0,1,.11-.48.36.36,0,0,1,.48.12l7.55,12.35a.35.35,0,0,1-.12.47A.29.29,0,0,1,324.5,179.77Z" transform="translate(-291.46 -143.82)"/><path d="M317.6,183.21a.34.34,0,0,1-.29-.17l-5.46-8.92a.35.35,0,0,1,.12-.47.34.34,0,0,1,.47.11l5.45,8.92a.35.35,0,0,1-.11.48A.41.41,0,0,1,317.6,183.21Z" transform="translate(-291.46 -143.82)"/><path d="M305.63,166.73a1.37,1.37,0,1,1,1.37-1.37A1.37,1.37,0,0,1,305.63,166.73Zm0-2.06a.69.69,0,1,0,0,1.38.69.69,0,0,0,0-1.38Z" transform="translate(-291.46 -143.82)"/><path d="M329.65,164.67A1.37,1.37,0,1,1,331,163.3,1.37,1.37,0,0,1,329.65,164.67Zm0-2a.68.68,0,0,0-.69.68.69.69,0,0,0,1.38,0A.68.68,0,0,0,329.65,162.62Z" transform="translate(-291.46 -143.82)"/><path d="M332.74,179.77a1.72,1.72,0,1,1,1.72-1.71A1.71,1.71,0,0,1,332.74,179.77Zm0-2.74a1,1,0,1,0,1,1A1,1,0,0,0,332.74,177Z" transform="translate(-291.46 -143.82)"/><path d="M316.06,157.27h0a.7.7,0,0,1-1,0h0a.7.7,0,0,1,0-1h0a.68.68,0,0,1,1,0h0A.68.68,0,0,1,316.06,157.27Z" transform="translate(-291.46 -143.82)"/><path d="M331.85,168.93h0a.68.68,0,0,1-1,0h0a.68.68,0,0,1,0-1h0a.7.7,0,0,1,1,0h0A.68.68,0,0,1,331.85,168.93Z" transform="translate(-291.46 -143.82)"/><path d="M307.83,176.49h0a.7.7,0,0,1-1,0h0a.69.69,0,0,1,0-1h0a.7.7,0,0,1,1,0h0A.69.69,0,0,1,307.83,176.49Z" transform="translate(-291.46 -143.82)"/><path d="M331.17,183.35h0a.69.69,0,0,1-1,0h0a.7.7,0,0,1,0-1h0a.69.69,0,0,1,1,0h0A.7.7,0,0,1,331.17,183.35Z" transform="translate(-291.46 -143.82)"/><path d="M306.46,184h0a.71.71,0,0,1-1,0h0a.71.71,0,0,1,0-1h0a.71.71,0,0,1,1,0h0A.71.71,0,0,1,306.46,184Z" transform="translate(-291.46 -143.82)"/><path d="M307.83,161.38h0a.68.68,0,0,1-1,0h0a.68.68,0,0,1,0-1h0a.7.7,0,0,1,1,0h0A.68.68,0,0,1,307.83,161.38Z" transform="translate(-291.46 -143.82)"/><path d="M330.48,158.64h0a.68.68,0,0,1-1,0h0a.68.68,0,0,1,0-1h0a.68.68,0,0,1,1,0h0A.68.68,0,0,1,330.48,158.64Z" transform="translate(-291.46 -143.82)"/></svg>